<?xml version="1.0" encoding="UTF-8"?>
<svg version="1.1" xmlns="http://www.w3.org/2000/svg" width="200" height="200">
<path d="M0 0 C66 0 132 0 200 0 C200 66 200 132 200 200 C134 200 68 200 0 200 C0 134 0 68 0 0 Z " fill="#14212D" transform="translate(0,0)"/>
<path d="M0 0 C0.99 0.495 0.99 0.495 2 1 C-0.22656978 3.22656978 -2.45353591 5.45270325 -4.68359375 7.67578125 C-6.39179141 9.38974011 -8.07735628 11.12632702 -9.75 12.875 C-12 15 -12 15 -14.6875 16.5625 C-17.35830875 18.22273247 -18.01508543 19.04525628 -19 22 C-19.38749213 24.32495277 -19.72982839 26.65851268 -20 29 C-20.66 29 -21.32 29 -22 29 C-22 29.99 -22 30.98 -22 32 C-21.01 32 -20.02 32 -19 32 C-18.505 37.94 -18.505 37.94 -18 44 C-18.66 44 -19.32 44 -20 44 C-20 44.99 -20 45.98 -20 47 C-19.34 47 -18.68 47 -18 47 C-17.505 51.455 -17.505 51.455 -17 56 C-16.195625 56.226875 -15.39125 56.45375 -14.5625 56.6875 C-11.64855217 57.76105973 -9.39441324 58.87809468 -6.75 60.4375 C-2.04155913 63.14866356 2.75751803 64.65380943 8 66 C8 66.99 8 67.98 8 69 C8.99 69 9.98 69 11 69 C11 68.01 11 67.02 11 66 C18.33003779 61.37847747 27.17893313 57 36 57 C35.67 52.71 35.34 48.42 35 44 C35.66 44 36.32 44 37 44 C37 43.01 37 42.02 37 41 C37.66 41 38.32 41 39 41 C38.67 40.34 38.34 39.68 38 39 C37.95977609 36.6670134 37.95679753 34.33293334 38 32 C37.34 32 36.68 32 36 32 C36 31.01 36 30.02 36 29 C36.99 29 37.98 29 39 29 C38.97350778 25.6365731 38.97350778 25.6365731 38 22 C35.11211359 19.76915523 35.11211359 19.76915523 32 18 C30.9375 16.0625 30.9375 16.0625 30 14 C28.38161281 12.28641357 26.70328319 10.6292274 25 9 C23.55983055 7.56517441 22.12245801 6.12753751 20.6875 4.6875 C19.99011719 3.99011719 19.29273437 3.29273438 18.57421875 2.57421875 C18.05472656 2.05472656 17.53523438 1.53523438 17 1 C21.19105327 1 23.86793047 3.1533675 27.3125 5.3125 C31.79457385 8.09218378 36.24549721 10.69854503 41 13 C45.84615385 15.69230769 45.84615385 15.69230769 47 18 C49.02463255 18.65213292 49.02463255 18.65213292 51 19 C51.02698189 20.62490954 51.04638757 22.24994633 51.0625 23.875 C51.07410156 24.77992187 51.08570313 25.68484375 51.09765625 26.6171875 C51 29 51 29 50 31 C50.66 31 51.32 31 52 31 C52.19551338 32.60320974 52.38111983 34.20762986 52.5625 35.8125 C52.66691406 36.70582031 52.77132812 37.59914062 52.87890625 38.51953125 C53 41 53 41 52 44 C51.34 44 50.68 44 50 44 C50 44.99 50 45.98 50 47 C50.99 47 51.98 47 53 47 C53.01417969 47.81984375 53.02835937 48.6396875 53.04296875 49.484375 C53.13378135 55.98342662 53.13378135 55.98342662 56.0625 61.5 C57.71634545 62.34451682 59.37304461 63.18366372 61.0390625 64.00390625 C62.10253906 64.52791016 62.10253906 64.52791016 63.1875 65.0625 C63.86167969 65.36285156 64.53585938 65.66320312 65.23046875 65.97265625 C67 67 67 67 69 70 C70.88559783 70.89474372 70.88559783 70.89474372 73 71.5 C76.45281194 72.56630957 76.8545093 72.78176395 79 76 C80.175625 76.4125 81.35125 76.825 82.5625 77.25 C83.696875 77.8275 84.83125 78.405 86 79 C87.12359236 82.93257325 87.29385326 85.11844023 86 89 C85.01 89 84.02 89 83 89 C83 89.99 83 90.98 83 92 C83.99 92 84.98 92 86 92 C87.33257403 111.00455581 87.33257403 111.00455581 86 119 C83.64598982 116.64598982 83.7711834 116.12542271 83.625 112.9375 C83.23724362 108.46394027 81.86585555 105.16004279 79.921875 101.15234375 C78.61154524 98.09305689 78.28104266 95.3022513 78 92 C77.01 92 76.02 92 75 92 C75.33 90.68 75.66 89.36 76 88 C60.21882189 79.50672908 60.21882189 79.50672908 43 76 C41.6072711 77.61736259 40.28062485 79.2925002 39 81 C34.02957792 86.65599754 28.13700014 89.25216323 21 91 C19 88 19 88 19 85 C19.66 84.34 20.32 83.68 21 83 C22.51001493 79.10112397 22.51001493 79.10112397 23 75 C19.04 74.67 15.08 74.34 11 74 C11 73.01 11 72.02 11 71 C10.01 71 9.02 71 8 71 C8 71.99 8 72.98 8 74 C2.72 74 -2.56 74 -8 74 C-8 74.99 -8 75.98 -8 77 C-7.38125 77.0825 -6.7625 77.165 -6.125 77.25 C-4 78 -4 78 -2.875 80 C-2.58625 80.66 -2.2975 81.32 -2 82 C-1.34 82.33 -0.68 82.66 0 83 C0 84.65 0 86.3 0 88 C-6.625 91 -6.625 91 -10 91 C-11.00893914 89.33872952 -12.00730879 87.6710302 -13 86 C-17.99456265 81.58601549 -24.18720604 76.2390454 -31 76 C-35.21259653 77.63823198 -39.07303971 79.7747225 -43 82 C-44.43185254 82.74019496 -45.86856889 83.47115285 -47.3125 84.1875 C-47.93125 84.49558594 -48.55 84.80367188 -49.1875 85.12109375 C-57.18666667 89 -57.18666667 89 -61 89 C-61 89.99 -61 90.98 -61 92 C-60.34 92.33 -59.68 92.66 -59 93 C-59.2165625 93.97582031 -59.433125 94.95164062 -59.65625 95.95703125 C-59.9346875 97.22933594 -60.213125 98.50164062 -60.5 99.8125 C-60.7784375 101.07707031 -61.056875 102.34164062 -61.34375 103.64453125 C-62.09596992 106.92086334 -62.09596992 106.92086334 -62 110 C-62.99 110.495 -62.99 110.495 -64 111 C-64.73075648 113.3140622 -65.40138258 115.64828869 -66 118 C-66.33 118 -66.66 118 -67 118 C-67 109.42 -67 100.84 -67 92 C-67.66 92 -68.32 92 -69 92 C-69 91.01 -69 90.02 -69 89 C-68.34 89 -67.68 89 -67 89 C-67 85.7 -67 82.4 -67 79 C-65.515 78.505 -65.515 78.505 -64 78 C-63.67 77.01 -63.34 76.02 -63 75 C-60.67328135 73.98470459 -58.3396553 72.98511802 -56 72 C-55.34 71.01 -54.68 70.02 -54 69 C-50.91966739 67.51687689 -48.05715198 66.20000173 -44.6875 65.5625 C-43.8521875 65.2840625 -43.8521875 65.2840625 -43 65 C-42.731875 64.38125 -42.46375 63.7625 -42.1875 63.125 C-40.3189256 59.78123528 -37.52765213 59.30653783 -34 58 C-34.33 53.38 -34.66 48.76 -35 44 C-34.34 44 -33.68 44 -33 44 C-33 40.04 -33 36.08 -33 32 C-33.66 32 -34.32 32 -35 32 C-35 31.01 -35 30.02 -35 29 C-34.34 29 -33.68 29 -33 29 C-33 25.37 -33 21.74 -33 18 C-30.91666667 17.08854167 -28.83333333 16.17708333 -26.75 15.265625 C-19.24552897 11.81186277 -12.37171819 7.81034092 -5.47265625 3.27148438 C-3.68444832 2.12289161 -1.84567768 1.05376792 0 0 Z " fill="#1BEAF4" transform="translate(91,25)"/>
<path d="M0 0 C2.8125 0.625 2.8125 0.625 6 2 C7.82628468 4.95984069 8.90335507 7.71006521 10 11 C12.65269897 8.52414762 14.68010103 6.40973899 16 3 C16 2.01 16 1.02 16 0 C18.97 0.99 21.94 1.98 25 3 C25 5.31 25 7.62 25 10 C24.34 10 23.68 10 23 10 C23.99 14.95 23.99 14.95 25 20 C24.34 20 23.68 20 23 20 C22.26290911 27.12522312 22.26290911 27.12522312 25.0625 33.4375 C28.25497221 36.22242256 31.09159134 37.42292282 35 39 C38.27848907 41.26799586 40.77321518 43.65982277 43 47 C46.70810982 48.85405491 48.69270392 49.33334188 52.7421875 48.30078125 C54.79134898 47.58490536 56.83290396 46.84696432 58.8671875 46.08984375 C63.49142539 44.48116249 68.17357838 43.73834147 73 43 C74.216875 42.79375 75.43375 42.5875 76.6875 42.375 C77.450625 42.25125 78.21375 42.1275 79 42 C76.44514517 45.12260034 73.74891123 45.75036292 70 47 C68.97103319 47.9701687 67.97170259 48.97248159 67 50 C60.52255972 55.0992615 52.76605046 60.67130687 44.375 61.25 C40.46699905 59.80259224 37.20166091 57.85441364 33.69140625 55.625 C28.52392909 52.50501379 22.9453419 50.10823284 17.30078125 47.984375 C15 47 15 47 13 45 C10.31206107 45.2006964 10.31206107 45.2006964 7.375 45.875 C6.37210938 46.07867187 5.36921875 46.28234375 4.3359375 46.4921875 C3.17964844 46.74355469 3.17964844 46.74355469 2 47 C2 47.66 2 48.32 2 49 C-4.67552129 54.00287374 -15.68221911 61.35627812 -24.1484375 60.7890625 C-27.95509656 59.73571301 -30.65277489 58.07527957 -34 56 C-34 55.34 -34 54.68 -34 54 C-35.051875 53.731875 -36.10375 53.46375 -37.1875 53.1875 C-40.62403575 52.11710362 -42.97249257 50.86308149 -46 49 C-47.010625 48.71125 -48.02125 48.4225 -49.0625 48.125 C-52.59854019 46.77077184 -53.89120519 45.08208473 -56 42 C-51.15869165 43.03175424 -46.38767591 44.15000409 -41.625 45.5 C-36.13851399 47.02876626 -30.61673196 48.07655277 -25 49 C-24.67 48.01 -24.34 47.02 -24 46 C-22.328125 44.97265625 -22.328125 44.97265625 -20.25 44.0625 C-15.97475519 42.05106997 -12.30173108 39.95259662 -9.625 35.9375 C-8 34 -8 34 -1 31 C-1 24.73 -1 18.46 -1 12 C-1.99 12 -2.98 12 -4 12 C-4 11.34 -4 10.68 -4 10 C-3.34 10 -2.68 10 -2 10 C-2.3403125 8.3603125 -2.3403125 8.3603125 -2.6875 6.6875 C-3 3 -3 3 -1.5625 1.0625 C-1.046875 0.711875 -0.53125 0.36125 0 0 Z " fill="#1BECF6" transform="translate(89,115)"/>
<path d="M0 0 C0.99 0 1.98 0 3 0 C3 0.99 3 1.98 3 3 C7.29 3 11.58 3 16 3 C15.2817669 7.3093986 14.69268808 10.16324035 13 14 C12.34 14 11.68 14 11 14 C11.66 15.65 12.32 17.3 13 19 C20.93953001 17.0556253 26.39374077 14.06082079 32 8 C33.33333333 6.66666667 34.66666667 5.33333333 36 4 C35.67 5.32 35.34 6.64 35 8 C36.32 7.34 37.64 6.68 39 6 C39.19573608 7.43640171 39.38127816 8.87419504 39.5625 10.3125 C39.71912109 11.51326172 39.71912109 11.51326172 39.87890625 12.73828125 C40 15 40 15 39 18 C38.01 18 37.02 18 36 18 C36 18.99 36 19.98 36 21 C36.99 21 37.98 21 39 21 C39 23.64 39 26.28 39 29 C38.34 29 37.68 29 37 29 C37 29.66 37 30.32 37 31 C37.66 31 38.32 31 39 31 C38.68627972 33.92805598 38.1077896 34.90239053 35.890625 36.91015625 C32.72285782 39.20036631 29.43988645 40.9827329 25.9375 42.6875 C25.32583984 42.99494141 24.71417969 43.30238281 24.08398438 43.61914062 C21.03004683 45.12795085 18.32754716 46.16811321 15 47 C14.34 41.06 13.68 35.12 13 29 C13.66 29 14.32 29 15 29 C14.505 25.535 14.505 25.535 14 22 C11.36 21.34 8.72 20.68 6 20 C6.495 20.99 6.495 20.99 7 22 C3.90322581 28.42293907 3.90322581 28.42293907 0.75 30.4375 C0.1725 30.623125 -0.405 30.80875 -1 31 C-1.50403768 29.70990357 -2.00309926 28.41786211 -2.5 27.125 C-2.7784375 26.40570313 -3.056875 25.68640625 -3.34375 24.9453125 C-4 23 -4 23 -4 21 C-6.64 20.67 -9.28 20.34 -12 20 C-12 22.97 -12 25.94 -12 29 C-12.66 29 -13.32 29 -14 29 C-14 29.66 -14 30.32 -14 31 C-13.01 31 -12.02 31 -11 31 C-10.01751476 35.0527516 -9.91840426 38.83861737 -10 43 C-10.33 43 -10.66 43 -11 43 C-11.33 44.65 -11.66 46.3 -12 48 C-15.79049707 46.57250019 -19.27122456 44.83763458 -22.8125 42.875 C-23.78832031 42.33617187 -24.76414062 41.79734375 -25.76953125 41.2421875 C-26.50558594 40.83226562 -27.24164063 40.42234375 -28 40 C-28 39.34 -28 38.68 -28 38 C-28.94875 37.690625 -29.8975 37.38125 -30.875 37.0625 C-34 36 -34 36 -36 35 C-36 33.68 -36 32.36 -36 31 C-36.66 31 -37.32 31 -38 31 C-38 30.34 -38 29.68 -38 29 C-37.34 29 -36.68 29 -36 29 C-36 26.36 -36 23.72 -36 21 C-36.99 21 -37.98 21 -39 21 C-39 20.01 -39 19.02 -39 18 C-38.01 18 -37.02 18 -36 18 C-35.67 16.02 -35.34 14.04 -35 12 C-35.66 12 -36.32 12 -37 12 C-37 10.02 -37 8.04 -37 6 C-36.34 5.67 -35.68 5.34 -35 5 C-28.80924202 8.09537899 -22.90495135 12.09504865 -18 17 C-18 17.99 -18 18.98 -18 20 C-17.44570312 19.7834375 -16.89140625 19.566875 -16.3203125 19.34375 C-15.59585938 19.0653125 -14.87140625 18.786875 -14.125 18.5 C-13.40570313 18.2215625 -12.68640625 17.943125 -11.9453125 17.65625 C-10 17 -10 17 -8 17 C-8 15.35 -8 13.7 -8 12 C-8.99 11.67 -9.98 11.34 -11 11 C-11.66666667 9.66666667 -12.33333333 8.33333333 -13 7 C-13.99 6.67 -14.98 6.34 -16 6 C-16 5.01 -16 4.02 -16 3 C-10.72 3 -5.44 3 0 3 C0 2.01 0 1.02 0 0 Z " fill="#142C38" transform="translate(99,96)"/>
<path d="M0 0 C0.19573608 1.43640171 0.38127816 2.87419504 0.5625 4.3125 C0.66691406 5.11300781 0.77132812 5.91351563 0.87890625 6.73828125 C1 9 1 9 0 12 C-0.99 12 -1.98 12 -3 12 C-3 12.99 -3 13.98 -3 15 C-2.01 15 -1.02 15 0 15 C0 17.64 0 20.28 0 23 C-0.66 23 -1.32 23 -2 23 C-2 23.66 -2 24.32 -2 25 C-1.34 25 -0.68 25 0 25 C-0.31372028 27.92805598 -0.8922104 28.90239053 -3.109375 30.91015625 C-6.27714218 33.20036631 -9.56011355 34.9827329 -13.0625 36.6875 C-13.97999023 37.14866211 -13.97999023 37.14866211 -14.91601562 37.61914062 C-17.89663362 39.09172703 -20.72049603 40.38662644 -24 41 C-24 38.36 -24 35.72 -24 33 C-23.34 33 -22.68 33 -22 33 C-22 31.68 -22 30.36 -22 29 C-16.25 26 -16.25 26 -14 26 C-13.67 25.01 -13.34 24.02 -13 23 C-12.01 23 -11.02 23 -10 23 C-10 20.36 -10 17.72 -10 15 C-10.66 15 -11.32 15 -12 15 C-12 14.01 -12 13.02 -12 12 C-11.34 12 -10.68 12 -10 12 C-9.9175 11.2575 -9.835 10.515 -9.75 9.75 C-8.78752527 6.220926 -4.17648229 0 0 0 Z " fill="#1BE7F1" transform="translate(138,102)"/>
<path d="M0 0 C3.56521654 1.78260827 6.71455357 3.75992289 10 6 C9.67 7.65 9.34 9.3 9 11 C8.34 11 7.68 11 7 11 C7 11.99 7 12.98 7 14 C7.66 14 8.32 14 9 14 C9 16.64 9 19.28 9 22 C13.95 24.31 18.9 26.62 24 29 C24 32.96 24 36.92 24 41 C20.15981797 39.46392719 16.78151668 37.86686467 13.1875 35.875 C12.21167969 35.33617187 11.23585938 34.79734375 10.23046875 34.2421875 C9.49441406 33.83226562 8.75835937 33.42234375 8 33 C8 32.34 8 31.68 8 31 C7.05125 30.690625 6.1025 30.38125 5.125 30.0625 C2 29 2 29 0 28 C0 26.68 0 25.36 0 24 C-0.66 24 -1.32 24 -2 24 C-2 23.34 -2 22.68 -2 22 C-1.34 22 -0.68 22 0 22 C0 19.36 0 16.72 0 14 C-0.99 14 -1.98 14 -3 14 C-3 13.01 -3 12.02 -3 11 C-2.01 11 -1.02 11 0 11 C0 7.37 0 3.74 0 0 Z " fill="#1BEBF5" transform="translate(63,103)"/>
<path d="M0 0 C1.69667089 1.64193957 3.35140074 3.31009188 5 5 C5.78246094 5.78632812 6.56492187 6.57265625 7.37109375 7.3828125 C8.19738281 8.24648438 9.02367188 9.11015625 9.875 10 C10.67679688 10.825 11.47859375 11.65 12.3046875 12.5 C14 15 14 15 14.02734375 17.49609375 C12.73640808 20.64244267 11.02044974 22.59209332 8.6875 25.0625 C7.90761719 25.89910156 7.12773438 26.73570313 6.32421875 27.59765625 C4.23755539 29.75445956 2.13171848 31.88779381 0 34 C-3.97826087 28.69565217 -3.97826087 28.69565217 -4.0625 26 C-3 24 -3 24 -0.375 21 C2.17517936 18.36653957 2.17517936 18.36653957 2.125 15.9375 C0.96702331 13.73504415 0.96702331 13.73504415 -1.625 11.5 C-4 9 -4 9 -4 7 C-2.78955585 4.57911171 -1.45708927 2.28066147 0 0 Z " fill="#1BE9F3" transform="translate(83,44)"/>
<path d="M0 0 C1.98 2.31 3.96 4.62 6 7 C-4.56 7 -15.12 7 -26 7 C-22.20694064 4.47129376 -18.48844659 3.56818412 -14.125 2.375 C-12.92037109 2.03082031 -12.92037109 2.03082031 -11.69140625 1.6796875 C-2.93056583 -0.74505911 -2.93056583 -0.74505911 0 0 Z " fill="#1AD7E1" transform="translate(117,71)"/>
<path d="M0 0 C0.66 0 1.32 0 2 0 C2.22162329 1.62324086 2.42689803 3.248721 2.625 4.875 C2.74101563 5.77992188 2.85703125 6.68484375 2.9765625 7.6171875 C2.98429687 8.40351563 2.99203125 9.18984375 3 10 C2.34 10.66 1.68 11.32 1 12 C0.34 11.34 -0.32 10.68 -1 10 C-0.9765625 7.6171875 -0.9765625 7.6171875 -0.625 4.875 C-0.51414062 3.96492187 -0.40328125 3.05484375 -0.2890625 2.1171875 C-0.19367188 1.41851562 -0.09828125 0.71984375 0 0 Z " fill="#154955" transform="translate(112,135)"/>
<path d="M0 0 C4.60272162 1.77027754 7.7129243 3.18699218 11 7 C10.01 7.495 10.01 7.495 9 8 C6 6 3 4 0 2 C0 3.65 0 5.3 0 7 C-0.33 7 -0.66 7 -1 7 C-1.04254356 5.00045254 -1.04080783 2.99958364 -1 1 C-0.67 0.67 -0.34 0.34 0 0 Z " fill="#143F4B" transform="translate(63,101)"/>
<path d="M0 0 C0.66 0.33 1.32 0.66 2 1 C2 1.99 2 2.98 2 4 C1.01 4.495 1.01 4.495 0 5 C-0.73075648 7.3140622 -1.40138258 9.64828869 -2 12 C-2.33 12 -2.66 12 -3 12 C-3.25 4.375 -3.25 4.375 -1 1 C-0.67 0.67 -0.34 0.34 0 0 Z " fill="#1ACAD5" transform="translate(27,131)"/>
</svg>
